# xmcd CD Database Entry
#
# Track frame offsets:
# 150
# 20925
# 42237
# 63357
# 88287
# 109530
# 127447
# 145820
# 168650
# 190380
#
# Disc length: 2886 seconds
#
# Revision: 3
# Processed by: cddbd v1.4b41PL1 Copyright (c) Steve Scherf et al.
# Submitted via: tcd 2.0b
#
DISCID=9a0b440a
DTITLE=Belinda Carlisle - Runaway Horses
DYEAR=1900
DGENRE=
TTITLE0=Leave a Light On
TTITLE1=Runaway Horses
TTITLE2=Vision of You
TTITLE3=Summer Rain
TTITLE4=La Luna
TTITLE5=(We Want) The Same Thing
TTITLE6=Deep Deep Ocean
TTITLE7=Valentine
TTITLE8=Whatever It Takes
TTITLE9=Shades Of Michelangelo
EXTD=Produced by Rick Nowels
EXTT0=
EXTT1=
EXTT2=
EXTT3=
EXTT4=
EXTT5=
EXTT6=
EXTT7=
EXTT8=
EXTT9=
PLAYORDER=
